# This file uses centimeters as units for non-parametric coordinates.

mtllib deskNoWires.mtl
g default
v 10.000004 85.746162 70.000000
v 180.000000 85.746162 70.000000
v 10.000004 90.000000 70.000000
v 180.000000 90.000000 70.000000
v 10.000000 90.000000 10.000000
v 180.000000 90.000000 10.000000
v 10.000000 85.746162 10.000000
v 180.000000 85.746162 10.000000
v 10.000008 85.746162 180.000000
v 10.000008 90.000000 180.000000
v 70.000008 90.000000 180.000000
v 70.000008 85.746162 180.000000
v 70.000008 85.746162 10.000000
v 70.000008 90.000000 10.000000
v 70.000008 90.000000 105.143669
v 105.143677 90.000000 70.000000
v 105.143677 85.746162 70.000000
v 70.000008 85.746162 105.143669
v 64.181992 85.746162 13.181980
v 13.181984 85.746162 64.181984
v 13.181980 85.746162 13.181980
v 10.000000 0.000004 9.999955
v 10.000004 0.000000 70.000000
v 13.181980 0.000004 13.181936
v 13.181984 0.000000 64.181984
v 70.000008 0.000008 9.999911
v 64.181992 0.000008 13.181891
v 10.000008 85.746162 175.541489
v 70.000008 85.746162 175.541504
v 70.000008 90.000000 175.541504
v 10.000008 90.000000 175.541489
v 174.570480 85.746162 10.000000
v 174.570511 85.746162 70.000000
v 174.570511 90.000000 70.000000
v 174.570480 90.000000 10.000000
v 10.000008 0.000008 175.541489
v 10.000008 0.000008 180.000000
v 70.000008 0.000008 175.541504
v 70.000008 0.000008 180.000000
v 174.570480 0.000000 10.000000
v 174.570511 0.000000 70.000000
v 180.000000 0.000000 10.000000
v 180.000000 0.000000 70.000000
v 10.000000 0.000000 170.000000
v 70.000000 0.000000 170.000000
v 10.000000 85.000000 170.000000
v 70.000000 85.000000 170.000000
v 10.000000 85.000000 130.000000
v 70.000000 85.000000 130.000000
v 10.000000 0.000000 130.000000
v 70.000000 0.000000 130.000000
v 70.000000 69.200623 170.000000
v 70.000000 69.200623 130.000000
v 10.000000 69.200623 130.000000
v 10.000000 69.200623 170.000000
v 70.000000 56.635101 170.000000
v 70.000000 56.635101 130.000000
v 10.000000 56.635101 130.000000
v 10.000000 56.635101 170.000000
v 70.000000 48.719383 170.000000
v 70.000000 48.719383 130.000000
v 10.000000 48.719383 130.000000
v 10.000000 48.719383 170.000000
v 70.000000 36.818653 170.000000
v 70.000000 36.818653 130.000000
v 10.000000 36.818653 130.000000
v 10.000000 36.818653 170.000000
v 70.000000 33.320881 170.000000
v 70.000000 33.320873 130.000000
v 10.000000 33.320873 130.000000
v 10.000000 33.320881 170.000000
v 70.000000 2.002122 170.000000
v 70.000000 2.002118 130.000000
v 10.000000 2.002118 130.000000
v 10.000000 2.002122 170.000000
v 70.000000 68.878693 169.229187
v 70.000000 68.878693 130.770813
v 70.000000 56.957031 169.229187
v 70.000000 56.957031 130.770813
v 70.000000 48.414482 169.229187
v 70.000000 48.414482 130.770813
v 70.000000 37.123554 169.229187
v 70.000000 37.123554 130.770813
v 70.000000 32.518490 169.229187
v 70.000000 32.518482 130.770813
v 70.000000 2.804516 169.229187
v 70.000000 2.804513 130.770813
v 11.445621 68.878693 169.229187
v 11.445621 68.878693 130.770813
v 11.445621 56.957031 169.229187
v 11.445621 56.957031 130.770813
v 11.445625 48.414482 169.229187
v 11.445625 48.414482 130.770813
v 11.445625 37.123554 169.229187
v 11.445625 37.123554 130.770813
v 11.445625 32.518490 169.229187
v 11.445625 32.518482 130.770813
v 11.445625 2.804516 169.229187
v 11.445625 2.804513 130.770813
v 70.225693 80.378891 141.820465
v 70.225693 80.378891 158.179535
v 70.225693 73.821747 158.179535
v 70.225693 73.821747 141.820465
v 70.480545 80.378891 158.179535
v 70.480545 80.378891 141.820465
v 70.480545 73.821747 158.179535
v 70.480545 73.821747 141.820465
v 70.480545 79.709961 157.168762
v 70.480545 79.709961 142.831238
v 70.480545 74.490669 157.168762
v 70.480545 74.490669 142.831238
v 70.293381 79.709961 142.831238
v 70.293381 74.490669 142.831238
v 70.293381 74.490669 157.168762
v 70.293381 79.709961 157.168762
vt 0.552723 0.250000
vt 0.573359 0.000000
vt 0.623182 0.000000
vt 0.622455 0.250000
vt 0.545376 0.750000
vt 0.545376 0.500000
vt 0.742795 0.379401
vt 0.742795 0.388203
vt 0.625000 0.000000
vt 0.750000 0.375000
vt 0.750000 0.375000
vt 0.625000 0.250000
vt 0.125000 0.000000
vt 0.375000 0.000000
vt 0.375000 0.250000
vt 0.125000 0.250000
vt 0.615386 0.250000
vt 0.615386 0.000000
vt 0.625000 0.000000
vt 0.625000 0.250000
vt 0.740544 0.375000
vt 0.739453 0.375000
vt 0.750000 0.375000
vt 0.750000 0.375000
vt 0.375000 0.500000
vt 0.375000 0.750000
vt 0.475748 0.375000
vt 0.504117 0.375000
vt 0.625000 0.000000
vt 0.615386 0.000000
vt 0.740544 0.375000
vt 0.750000 0.375000
vt 0.545376 0.750000
vt 0.375000 0.000000
vt 0.375000 0.750000
vt 0.375000 0.000000
vt 0.375000 0.750000
vt 0.375000 0.750000
vt 0.375000 0.000000
vt 0.545376 0.750000
vt 0.545376 0.750000
vt 0.623182 0.000000
vt 0.742795 0.388203
vt 0.750000 0.375000
vt 0.625000 0.000000
vt 0.625000 0.250000
vt 0.375000 0.250000
vt 0.375000 0.203531
vt 0.625000 0.203531
vt 0.625000 0.500000
vt 0.375000 0.500000
vt 0.625000 0.546469
vt 0.375000 0.546469
vt 0.375000 0.750000
vt 0.625000 0.750000
vt 0.625000 1.000000
vt 0.375000 1.000000
vt 0.875000 0.250000
vt 0.875000 0.203531
vt 0.125000 0.203531
vt 0.125000 0.250000
vt 0.875000 0.203531
vt 0.625000 0.203531
vt 0.625000 0.166574
vt 0.875000 0.166574
vt 0.625000 0.583426
vt 0.375000 0.583426
vt 0.125000 0.166574
vt 0.375000 0.166574
vt 0.625000 0.166574
vt 0.875000 0.166574
vt 0.625000 0.143292
vt 0.875000 0.143292
vt 0.625000 0.606708
vt 0.375000 0.606708
vt 0.125000 0.143292
vt 0.375000 0.143292
vt 0.875000 0.143292
vt 0.625000 0.143292
vt 0.625000 0.108290
vt 0.875000 0.108290
vt 0.625000 0.641710
vt 0.375000 0.641710
vt 0.125000 0.108290
vt 0.375000 0.108290
vt 0.625000 0.108290
vt 0.875000 0.108290
vt 0.625000 0.098003
vt 0.875000 0.098003
vt 0.625000 0.651997
vt 0.375000 0.651997
vt 0.125000 0.098003
vt 0.375000 0.098003
vt 0.875000 0.098003
vt 0.625000 0.098003
vt 0.625000 0.005889
vt 0.875000 0.005889
vt 0.625000 0.744111
vt 0.375000 0.744111
vt 0.125000 0.005889
vt 0.375000 0.005889
vt 0.625000 0.005889
vt 0.875000 0.005889
vt 0.625000 0.000000
vt 0.875000 0.000000
vt 0.375000 0.000000
vt 0.125000 0.000000
vt 0.625000 0.203531
vt 0.875000 0.203531
vt 0.625000 0.166574
vt 0.875000 0.166574
vt 0.625000 0.143292
vt 0.875000 0.143292
vt 0.625000 0.108290
vt 0.875000 0.108290
vt 0.625000 0.098003
vt 0.875000 0.098003
vt 0.625000 0.005889
vt 0.875000 0.005889
vt 0.875000 0.250000
vt 0.625000 0.250000
vt 0.625000 0.250000
vt 0.875000 0.250000
vt 0.625000 0.203531
vt 0.625000 0.203531
vt 0.875000 0.203531
vt 0.875000 0.203531
vt 0.625000 0.250000
vt 0.875000 0.250000
vt 0.625000 0.203531
vt 0.875000 0.203531
vt 0.625000 0.250000
vt 0.875000 0.250000
vt 0.625000 0.203531
vt 0.875000 0.203531
vn 0.000000 0.000000 1.000000
vn 0.000000 0.000000 1.000000
vn 0.000000 0.000000 1.000000
vn 0.000000 0.000000 1.000000
vn -0.000000 0.000001 -1.000000
vn 0.000000 0.000000 -1.000000
vn 0.000000 0.000000 -1.000000
vn 0.000000 0.000000 -1.000000
vn 1.000000 0.000000 0.000000
vn 1.000000 0.000000 0.000000
vn 1.000000 0.000000 0.000000
vn 1.000000 0.000000 0.000000
vn -1.000000 0.000000 0.000000
vn -1.000000 0.000000 0.000000
vn -1.000000 0.000000 0.000000
vn -1.000000 0.000000 0.000000
vn -1.000000 0.000000 0.000000
vn -1.000000 0.000000 0.000000
vn -1.000000 0.000000 0.000000
vn -1.000000 0.000000 0.000000
vn 1.000000 0.000000 0.000000
vn 1.000000 0.000000 0.000000
vn 1.000000 0.000000 0.000000
vn 1.000000 0.000000 0.000000
vn 0.000000 0.000000 1.000000
vn 0.000000 0.000000 1.000000
vn 0.000000 0.000000 1.000000
vn 0.000000 0.000000 1.000000
vn 0.000000 0.000000 -1.000000
vn 0.000000 0.000000 -1.000000
vn -0.000000 0.000001 -1.000000
vn -0.000000 0.000001 -1.000000
vn 0.707107 0.000000 0.707106
vn 0.707107 0.000000 0.707106
vn 0.707107 0.000000 0.707106
vn 0.707107 0.000000 0.707106
vn 0.000000 1.000000 0.000000
vn 0.000000 1.000000 0.000000
vn 0.000000 1.000000 0.000000
vn 0.000000 1.000000 0.000000
vn 0.000000 1.000000 0.000000
vn 0.000000 1.000000 0.000000
vn 0.000000 1.000000 0.000000
vn 0.000000 1.000000 0.000000
vn 0.000000 1.000000 0.000000
vn 0.000000 1.000000 0.000000
vn 0.000000 1.000000 0.000000
vn 0.000000 1.000000 0.000000
vn 0.000000 1.000000 -0.000000
vn 0.000000 1.000000 -0.000000
vn 0.000000 1.000000 -0.000000
vn 0.000000 -1.000000 -0.000000
vn 0.000000 -1.000000 -0.000000
vn 0.000000 -1.000000 -0.000000
vn 0.000000 -1.000000 -0.000000
vn 0.000000 -1.000000 0.000000
vn 0.000000 -1.000000 0.000000
vn 0.000000 -1.000000 0.000000
vn 0.000000 -1.000000 0.000000
vn 0.000000 -1.000000 -0.000000
vn 0.000000 -1.000000 0.000000
vn 0.000000 -1.000000 0.000000
vn 0.000000 -1.000000 -0.000000
vn 0.000000 -1.000000 -0.000001
vn 0.000000 -1.000000 -0.000001
vn 0.000000 -1.000000 0.000000
vn 0.000000 -1.000000 -0.000000
vn 0.000000 -1.000000 -0.000000
vn 0.000000 -1.000000 -0.000001
vn 0.000000 -1.000000 -0.000001
vn -0.000000 -1.000000 -0.000000
vn 0.000000 -1.000000 -0.000000
vn 0.000000 -1.000000 -0.000000
vn -0.000000 -1.000000 -0.000000
vn 0.000000 -1.000000 -0.000000
vn 0.000000 -1.000000 0.000000
vn 0.000000 -1.000000 0.000000
vn 0.000000 -1.000000 -0.000000
vn -1.000000 0.000000 0.000000
vn -1.000000 0.000000 0.000000
vn -1.000000 0.000000 0.000000
vn -1.000000 0.000000 0.000000
vn 1.000000 -0.000000 -0.000000
vn 0.998436 -0.000000 0.055915
vn 0.998436 -0.000000 0.055915
vn 1.000000 -0.000000 -0.000000
vn 0.998436 -0.000000 0.055915
vn 0.877355 0.000000 0.479842
vn 0.877355 0.000000 0.479842
vn 0.998436 -0.000000 0.055915
vn -0.000000 0.000001 -1.000000
vn -0.000000 0.000001 -1.000000
vn -0.000000 0.000001 -1.000000
vn -0.000000 0.000001 -1.000000
vn 0.479842 -0.000001 0.877355
vn 0.055916 -0.000001 0.998436
vn 0.055916 -0.000001 0.998436
vn 0.479842 -0.000001 0.877355
vn 0.055916 -0.000001 0.998436
vn 0.000000 -0.000001 1.000000
vn 0.000000 -0.000001 1.000000
vn 0.055916 -0.000001 0.998436
vn 0.000000 -1.000000 0.000000
vn 0.000000 -1.000000 0.000000
vn 0.000000 -1.000000 0.000000
vn 0.000000 -1.000000 0.000000
vn 1.000000 0.000000 0.000000
vn 1.000000 0.000000 0.000000
vn 1.000000 0.000000 0.000000
vn 1.000000 0.000000 0.000000
vn 0.000000 1.000000 0.000000
vn 0.000000 1.000000 0.000000
vn 0.000000 1.000000 0.000000
vn 0.000000 1.000000 0.000000
vn -1.000000 0.000000 0.000000
vn -1.000000 0.000000 0.000000
vn -1.000000 0.000000 0.000000
vn -1.000000 0.000000 0.000000
vn 0.000000 -1.000000 0.000000
vn 0.000000 -1.000000 0.000000
vn 0.000000 -1.000000 0.000000
vn 0.000000 -1.000000 0.000000
vn 0.000000 0.000000 1.000000
vn 0.000000 0.000000 1.000000
vn 0.000000 0.000000 1.000000
vn 0.000000 0.000000 1.000000
vn 0.000000 1.000000 0.000000
vn 0.000000 1.000000 0.000000
vn 0.000000 1.000000 0.000000
vn 0.000000 1.000000 0.000000
vn 0.000000 0.000000 -1.000000
vn 0.000000 0.000000 -1.000000
vn 0.000000 0.000000 -1.000000
vn 0.000000 0.000000 -1.000000
vn -1.000000 0.000000 0.000000
vn -1.000000 0.000000 0.000000
vn -1.000000 0.000000 0.000000
vn -1.000000 0.000000 0.000000
vn 0.000000 0.000000 -1.000000
vn 0.000000 0.000000 -1.000000
vn 0.000000 0.000000 -1.000000
vn 0.000000 0.000000 -1.000000
vn 1.000000 0.000000 0.000000
vn 1.000000 0.000000 0.000000
vn 1.000000 0.000000 0.000000
vn 1.000000 0.000000 0.000000
vn 0.000000 0.000000 1.000000
vn 0.000000 0.000000 1.000000
vn 0.000000 0.000000 1.000000
vn 0.000000 0.000000 1.000000
vn -1.000000 0.000000 0.000001
vn -1.000000 0.000000 0.000001
vn -1.000000 0.000000 0.000001
vn -1.000000 0.000000 0.000001
vn 0.000000 0.000000 -1.000000
vn 0.000000 0.000000 -1.000000
vn 0.000000 0.000000 -1.000000
vn 0.000000 0.000000 -1.000000
vn 1.000000 0.000000 0.000000
vn 1.000000 0.000000 0.000000
vn 1.000000 0.000000 0.000000
vn 1.000000 0.000000 0.000000
vn 0.000000 0.000000 1.000000
vn 0.000000 0.000000 1.000000
vn 0.000000 0.000000 1.000000
vn 0.000000 0.000000 1.000000
vn 0.000000 0.000000 1.000000
vn 0.000000 0.000000 1.000000
vn 0.000000 0.000000 1.000000
vn 0.000000 0.000000 1.000000
vn 0.000000 1.000000 0.000000
vn 0.000000 1.000000 0.000000
vn 0.000000 1.000000 0.000000
vn 0.000000 1.000000 0.000000
vn 0.000000 0.000000 -1.000000
vn 0.000000 0.000000 -1.000000
vn 0.000000 0.000000 -1.000000
vn 0.000000 0.000000 -1.000000
vn 0.000000 -1.000000 0.000000
vn 0.000000 -1.000000 0.000000
vn 0.000000 -1.000000 0.000000
vn 0.000000 -1.000000 0.000000
vn 1.000000 0.000000 0.000000
vn 1.000000 0.000000 0.000000
vn 1.000000 0.000000 0.000000
vn 1.000000 0.000000 0.000000
vn -1.000000 0.000000 0.000000
vn -1.000000 0.000000 0.000000
vn -1.000000 0.000000 0.000000
vn -1.000000 0.000000 0.000000
vn 1.000000 0.000000 0.000000
vn 1.000000 0.000000 0.000000
vn 1.000000 0.000000 0.000000
vn 1.000000 0.000000 0.000000
vn 0.000000 0.000000 -1.000000
vn 0.000000 0.000000 -1.000000
vn 0.000000 0.000000 -1.000000
vn 0.000000 0.000000 -1.000000
vn -1.000000 0.000000 0.000000
vn -1.000000 0.000000 0.000000
vn -1.000000 0.000000 0.000000
vn -1.000000 0.000000 0.000000
vn 0.000000 0.000000 1.000000
vn 0.000000 0.000000 1.000000
vn 0.000000 0.000000 1.000000
vn 0.000000 0.000000 1.000000
vn 1.000000 -0.000000 0.000000
vn 1.000000 -0.000000 0.000000
vn 1.000000 0.000000 0.000000
vn 1.000000 0.000000 0.000000
vn 0.000000 0.000000 -1.000000
vn 0.000000 0.000000 -1.000000
vn 0.000000 0.000000 -1.000000
vn 0.000000 0.000000 -1.000000
vn -1.000000 0.000000 0.000000
vn -1.000000 0.000000 0.000000
vn -1.000000 0.000000 0.000000
vn -1.000000 0.000000 0.000000
vn 0.000000 0.000000 1.000000
vn 0.000000 0.000000 1.000000
vn 0.000000 0.000000 1.000000
vn 0.000000 0.000000 1.000000
vn 1.000000 0.000000 0.000000
vn 1.000000 0.000000 0.000000
vn 1.000000 0.000000 0.000000
vn 1.000000 0.000000 0.000000
vn 0.000000 0.000000 -1.000000
vn 0.000000 0.000000 -1.000000
vn 0.000000 0.000000 -1.000000
vn 0.000000 0.000000 -1.000000
vn -1.000000 0.000000 0.000000
vn -1.000000 0.000000 0.000000
vn -1.000000 0.000000 0.000000
vn -1.000000 0.000000 0.000000
vn 0.000000 0.000000 1.000000
vn 0.000000 0.000000 1.000000
vn 0.000000 0.000000 1.000000
vn 0.000000 0.000000 1.000000
vn 1.000000 -0.000000 0.000000
vn 1.000000 -0.000000 0.000000
vn 1.000000 0.000000 0.000000
vn 1.000000 0.000000 0.000000
vn 0.000000 0.000000 -1.000000
vn 0.000000 0.000000 -1.000000
vn 0.000000 0.000000 -1.000000
vn 0.000000 0.000000 -1.000000
vn -1.000000 0.000000 0.000000
vn -1.000000 0.000000 0.000000
vn -1.000000 0.000000 0.000000
vn -1.000000 0.000000 0.000000
vn 0.000000 0.000000 1.000000
vn 0.000000 0.000000 1.000000
vn 0.000000 0.000000 1.000000
vn 0.000000 0.000000 1.000000
vn 1.000000 0.000000 0.000000
vn 1.000000 0.000000 0.000000
vn 1.000000 0.000000 0.000000
vn 1.000000 0.000000 0.000000
vn 0.000000 0.000000 -1.000000
vn 0.000000 0.000000 -1.000000
vn 0.000000 0.000000 -1.000000
vn 0.000000 0.000000 -1.000000
vn -1.000000 0.000000 0.000000
vn -1.000000 0.000000 0.000000
vn -1.000000 0.000000 0.000000
vn -1.000000 0.000000 0.000000
vn 0.000000 0.000000 1.000000
vn 0.000000 0.000000 1.000000
vn 0.000000 0.000000 1.000000
vn 0.000000 0.000000 1.000000
vn 1.000000 -0.000001 0.000000
vn 1.000000 -0.000001 0.000000
vn 1.000000 0.000000 0.000000
vn 1.000000 0.000000 0.000000
vn 0.000000 0.000000 -1.000000
vn 0.000000 0.000000 -1.000000
vn 0.000000 0.000000 -1.000000
vn 0.000000 0.000000 -1.000000
vn -1.000000 0.000000 0.000000
vn -1.000000 0.000000 0.000000
vn -1.000000 0.000000 0.000000
vn -1.000000 0.000000 0.000000
vn 0.000000 0.000000 1.000000
vn 0.000000 0.000000 1.000000
vn 0.000000 0.000000 1.000000
vn 0.000000 0.000000 1.000000
vn 1.000000 0.000000 0.000000
vn 1.000000 0.000000 0.000000
vn 1.000000 0.000006 0.000000
vn 1.000000 0.000006 0.000000
vn 1.000000 0.000000 0.000000
vn 1.000000 -0.000000 0.000000
vn 1.000000 -0.000006 0.000000
vn 1.000000 0.000006 0.000000
vn 1.000000 -0.000000 0.000000
vn 1.000000 -0.000000 0.000000
vn 1.000000 -0.000006 0.000000
vn 1.000000 -0.000006 0.000000
vn 1.000000 -0.000000 0.000000
vn 1.000000 0.000000 0.000000
vn 1.000000 0.000006 0.000000
vn 1.000000 -0.000006 0.000000
vn 1.000000 0.000000 0.000000
vn 1.000000 0.000000 0.000000
vn 1.000000 0.000007 0.000000
vn 1.000000 0.000007 0.000000
vn 1.000000 0.000000 0.000000
vn 1.000000 -0.000000 0.000000
vn 1.000000 -0.000007 0.000000
vn 1.000000 0.000007 0.000000
vn 1.000000 -0.000000 0.000000
vn 1.000000 -0.000000 0.000000
vn 1.000000 -0.000007 0.000000
vn 1.000000 -0.000007 0.000000
vn 1.000000 -0.000000 0.000000
vn 1.000000 0.000000 0.000000
vn 1.000000 0.000007 0.000000
vn 1.000000 -0.000007 0.000000
vn 1.000000 0.000000 0.000000
vn 1.000000 0.000000 0.000000
vn 1.000000 0.000002 0.000000
vn 1.000000 0.000002 0.000000
vn 1.000000 0.000000 0.000000
vn 1.000000 -0.000001 0.000000
vn 1.000000 -0.000002 0.000000
vn 1.000000 0.000002 0.000000
vn 1.000000 -0.000001 0.000000
vn 1.000000 -0.000001 0.000000
vn 1.000000 -0.000002 0.000000
vn 1.000000 -0.000002 0.000000
vn 1.000000 -0.000001 0.000000
vn 1.000000 0.000000 0.000000
vn 1.000000 0.000002 0.000000
vn 1.000000 -0.000002 0.000000
vn 0.000000 -1.000000 0.000000
vn 0.000000 -1.000000 0.000000
vn 0.000000 -1.000000 0.000000
vn 0.000000 -1.000000 0.000000
vn 0.000000 0.000000 -1.000000
vn 0.000000 0.000000 -1.000000
vn 0.000000 0.000000 -1.000000
vn 0.000000 0.000000 -1.000000
vn 0.000000 1.000000 0.000000
vn 0.000000 1.000000 0.000000
vn 0.000000 1.000000 0.000000
vn 0.000000 1.000000 0.000000
vn 0.000000 0.000000 1.000000
vn 0.000000 0.000000 1.000000
vn 0.000000 0.000000 1.000000
vn 0.000000 0.000000 1.000000
vn 0.000000 -1.000000 0.000000
vn 0.000000 -1.000000 0.000000
vn 0.000000 -1.000000 0.000000
vn 0.000000 -1.000000 0.000000
vn 0.000000 0.000000 -1.000000
vn 0.000000 0.000000 -1.000000
vn 0.000000 0.000000 -1.000000
vn 0.000000 0.000000 -1.000000
vn 0.000000 1.000000 0.000000
vn 0.000000 1.000000 0.000000
vn 0.000000 1.000000 0.000000
vn 0.000000 1.000000 0.000000
vn 0.000000 0.000000 1.000000
vn 0.000000 0.000000 1.000000
vn 0.000000 0.000000 1.000000
vn 0.000000 0.000000 1.000000
vn 0.000000 -1.000000 0.000000
vn 0.000000 -1.000000 0.000000
vn 0.000000 -1.000000 0.000000
vn 0.000000 -1.000000 0.000000
vn 0.000000 0.000000 -1.000000
vn 0.000000 0.000000 -1.000000
vn 0.000000 0.000000 -1.000000
vn 0.000000 0.000000 -1.000000
vn 0.000000 1.000000 -0.000000
vn 0.000000 1.000000 -0.000000
vn 0.000000 1.000000 -0.000000
vn 0.000000 1.000000 -0.000000
vn 0.000000 0.000000 1.000000
vn 0.000000 0.000000 1.000000
vn 0.000000 0.000000 1.000000
vn 0.000000 0.000000 1.000000
vn 0.000000 1.000000 0.000000
vn 0.000000 1.000000 0.000000
vn 0.000000 1.000000 0.000000
vn 0.000000 1.000000 0.000000
vn 0.000000 0.000000 1.000000
vn 0.000000 0.000000 1.000000
vn 0.000000 0.000000 1.000000
vn 0.000000 0.000000 1.000000
vn 0.000000 -1.000000 0.000000
vn 0.000000 -1.000000 0.000000
vn 0.000000 -1.000000 0.000000
vn 0.000000 -1.000000 0.000000
vn 0.000000 0.000000 -1.000000
vn 0.000000 0.000000 -1.000000
vn 0.000000 0.000000 -1.000000
vn 0.000000 0.000000 -1.000000
vn 1.000000 0.000000 0.000000
vn 1.000000 0.000000 0.000000
vn 1.000000 0.000000 0.000000
vn 1.000000 0.000000 0.000000
vn 1.000000 0.000000 0.000000
vn 1.000000 -0.000000 0.000000
vn 1.000000 -0.000000 0.000000
vn 1.000000 0.000000 0.000000
vn 1.000000 -0.000000 0.000000
vn 1.000000 -0.000000 0.000000
vn 1.000000 -0.000000 0.000000
vn 1.000000 -0.000000 0.000000
vn 1.000000 -0.000000 0.000000
vn 1.000000 0.000000 0.000000
vn 1.000000 0.000000 0.000000
vn 1.000000 -0.000000 0.000000
vn 0.000000 -1.000000 0.000000
vn 0.000000 -1.000000 0.000000
vn 0.000000 -1.000000 0.000000
vn 0.000000 -1.000000 0.000000
vn 0.000000 0.000000 -1.000000
vn 0.000000 0.000000 -1.000000
vn 0.000000 0.000000 -1.000000
vn 0.000000 0.000000 -1.000000
vn 0.000000 1.000000 0.000000
vn 0.000000 1.000000 0.000000
vn 0.000000 1.000000 0.000000
vn 0.000000 1.000000 0.000000
vn 0.000000 0.000000 1.000000
vn 0.000000 0.000000 1.000000
vn 0.000000 0.000000 1.000000
vn 0.000000 0.000000 1.000000
vn -1.000000 0.000000 0.000000
vn -1.000000 0.000000 0.000000
vn -1.000000 0.000000 0.000000
vn -1.000000 0.000000 0.000000
vn 1.000000 0.000000 0.000000
vn 1.000000 0.000000 0.000000
vn 1.000000 0.000000 0.000000
vn 1.000000 0.000000 0.000000
s off
g CubicleWall5
usemtl CubicleWall5SG
f 16/1/1 17/2/2 33/3/3 34/4/4
f 13/5/5 14/6/6 35/7/7 32/8/8
f 2/9/9 8/10/10 6/11/11 4/12/12
f 7/13/13 1/14/14 3/15/15 5/16/16
f 31/17/17 28/18/18 9/19/19 10/20/20
f 29/21/21 30/22/22 11/23/23 12/24/24
f 9/19/25 12/24/26 11/23/27 10/20/28
f 5/25/29 14/6/30 13/5/31 7/26/32
f 16/1/33 15/27/34 18/28/35 17/2/36
f 30/22/37 31/17/38 10/20/39 11/23/40
f 34/4/41 35/7/42 14/6/43 16/1/44
f 3/15/45 15/27/46 16/1/47 14/6/48
f 14/6/49 5/16/50 3/15/51
f 13/5/52 32/8/53 33/3/54 17/2/55
f 37/29/56 36/30/57 38/31/58 39/32/59
f 13/5/60 17/2/61 18/28/62 1/14/63
f 19/33/64 20/34/65 21/35/66
f 13/5/67 1/14/68 20/34/69 19/33/70
f 23/36/71 22/37/72 24/38/73 25/39/74
f 22/37/75 26/40/76 27/41/77 24/38/78
f 1/14/79 7/26/80 22/37/81 23/36/82
f 21/35/83 20/34/84 25/39/85 24/38/86
f 20/34/87 1/14/88 23/36/89 25/39/90
f 7/26/91 13/5/92 26/40/93 22/37/94
f 13/5/95 19/33/96 27/41/97 26/40/98
f 19/33/99 21/35/100 24/38/101 27/41/102
f 29/21/103 28/18/104 1/14/105 18/28/106
f 18/28/107 15/27/108 30/22/109 29/21/110
f 3/15/111 31/17/112 30/22/113 15/27/114
f 1/14/115 28/18/116 31/17/117 3/15/118
f 41/42/119 40/43/120 42/44/121 43/45/122
f 34/4/123 33/3/124 2/9/125 4/12/126
f 6/11/127 35/7/128 34/4/129 4/12/130
f 32/8/131 35/7/132 6/11/133 8/10/134
f 9/19/135 28/18/136 36/30/137 37/29/138
f 28/18/139 29/21/140 38/31/141 36/30/142
f 29/21/143 12/24/144 39/32/145 38/31/146
f 12/24/147 9/19/148 37/29/149 39/32/150
f 33/3/151 32/8/152 40/43/153 41/42/154
f 32/8/155 8/10/156 42/44/157 40/43/158
f 8/10/159 2/9/160 43/45/161 42/44/162
f 2/9/163 33/3/164 41/42/165 43/45/166
f 47/46/167 46/47/168 55/48/169 52/49/170
f 46/47/171 47/46/172 49/50/173 48/51/174
f 48/51/175 49/50/176 53/52/177 54/53/178
f 50/54/179 51/55/180 45/56/181 44/57/182
f 49/58/183 47/46/184 52/49/185 53/59/186
f 54/60/187 55/48/188 46/47/189 48/61/190
f 89/62/191 88/63/192 90/64/193 91/65/194
f 54/53/195 53/52/196 57/66/197 58/67/198
f 58/68/199 59/69/200 55/48/201 54/60/202
f 52/49/203 55/48/204 59/69/205 56/70/206
f 57/71/207 56/70/208 60/72/209 61/73/210
f 58/67/211 57/66/212 61/74/213 62/75/214
f 62/76/215 63/77/216 59/69/217 58/68/218
f 56/70/219 59/69/220 63/77/221 60/72/222
f 93/78/223 92/79/224 94/80/225 95/81/226
f 62/75/227 61/74/228 65/82/229 66/83/230
f 66/84/231 67/85/232 63/77/233 62/76/234
f 60/72/235 63/77/236 67/85/237 64/86/238
f 65/87/239 64/86/240 68/88/241 69/89/242
f 66/83/243 65/82/244 69/90/245 70/91/246
f 70/92/247 71/93/248 67/85/249 66/84/250
f 64/86/251 67/85/252 71/93/253 68/88/254
f 97/94/255 96/95/256 98/96/257 99/97/258
f 70/91/259 69/90/260 73/98/261 74/99/262
f 74/100/263 75/101/264 71/93/265 70/92/266
f 68/88/267 71/93/268 75/101/269 72/102/270
f 73/103/271 72/102/272 45/104/273 51/105/274
f 74/99/275 73/98/276 51/55/277 50/54/278
f 44/106/279 75/101/280 74/100/281 50/107/282
f 72/102/283 75/101/284 44/106/285 45/104/286
f 53/59/287 52/49/288 76/108/289 77/109/290
f 52/49/291 56/70/292 78/110/293 76/108/294
f 56/70/295 57/71/296 79/111/297 78/110/298
f 57/71/299 53/59/300 77/109/301 79/111/302
f 61/73/303 60/72/304 80/112/305 81/113/306
f 60/72/307 64/86/308 82/114/309 80/112/310
f 64/86/311 65/87/312 83/115/313 82/114/314
f 65/87/315 61/73/316 81/113/317 83/115/318
f 69/89/319 68/88/320 84/116/321 85/117/322
f 68/88/323 72/102/324 86/118/325 84/116/326
f 72/102/327 73/103/328 87/119/329 86/118/330
f 73/103/331 69/89/332 85/117/333 87/119/334
f 77/109/335 76/108/336 88/63/337 89/62/338
f 76/108/339 78/110/340 90/64/341 88/63/342
f 78/110/343 79/111/344 91/65/345 90/64/346
f 79/111/347 77/109/348 89/62/349 91/65/350
f 81/113/351 80/112/352 92/79/353 93/78/354
f 80/112/355 82/114/356 94/80/357 92/79/358
f 82/114/359 83/115/360 95/81/361 94/80/362
f 83/115/363 81/113/364 93/78/365 95/81/366
f 85/117/367 84/116/368 96/95/369 97/94/370
f 84/116/371 86/118/372 98/96/373 96/95/374
f 86/118/375 87/119/376 99/97/377 98/96/378
f 87/119/379 85/117/380 97/94/381 99/97/382
f 100/120/383 101/121/384 104/122/385 105/123/386
f 101/121/387 102/124/388 106/125/389 104/122/390
f 102/124/391 103/126/392 107/127/393 106/125/394
f 103/126/395 100/120/396 105/123/397 107/127/398
f 105/123/399 104/122/400 108/128/401 109/129/402
f 104/122/403 106/125/404 110/130/405 108/128/406
f 106/125/407 107/127/408 111/131/409 110/130/410
f 107/127/411 105/123/412 109/129/413 111/131/414
f 109/129/415 108/128/416 115/132/417 112/133/418
f 108/128/419 110/130/420 114/134/421 115/132/422
f 110/130/423 111/131/424 113/135/425 114/134/426
f 111/131/427 109/129/428 112/133/429 113/135/430
f 100/120/431 103/126/432 102/124/433 101/121/434
f 113/135/435 112/133/436 115/132/437 114/134/438
