# This file uses centimeters as units for non-parametric coordinates.

mtllib LightSwitch.mtl
g default
v -0.500000 0.780820 -0.092990
v 0.500000 0.780820 -0.092990
v -0.500000 -0.780820 -0.092990
v 0.500000 -0.780820 -0.092990
v -0.407019 -0.687839 0.092990
v -0.472767 -0.753586 0.065757
v -0.500000 -0.780820 0.000009
v 0.407019 -0.687839 0.092990
v 0.472767 -0.753586 0.065757
v 0.500000 -0.780820 0.000009
v -0.407019 0.687839 0.092990
v -0.472767 0.753586 0.065757
v -0.500000 0.780820 0.000009
v 0.407019 0.687839 0.092990
v 0.472767 0.753586 0.065757
v 0.500000 0.780820 0.000009
vt 0.625000 0.500000
vt 0.375000 0.750000
vt 0.601755 0.014885
vt 0.601755 0.235115
vt 0.625000 0.374987
vt 0.375000 0.500000
vt 0.625000 0.750000
vt 0.375000 0.875013
vt 0.749987 0.000000
vt 0.875000 0.000000
vt 0.875000 0.250000
vt 0.125000 0.000000
vt 0.250012 0.250000
vt 0.125000 0.250000
vt 0.625000 0.875013
vt 0.749987 0.250000
vt 0.250013 0.000000
vt 0.398245 0.014885
vt 0.375000 0.374987
vt 0.398245 0.235115
vt 0.375000 0.000000
vt 0.375000 1.000000
vt 0.625000 0.000000
vt 0.625000 1.000000
vt 0.375000 0.250000
vt 0.625000 0.250000
vn 0.000000 0.000000 -1.000000
vn 0.000000 0.000000 -1.000000
vn 0.000000 0.000000 -1.000000
vn 0.000000 0.000000 -1.000000
vn -0.035017 -0.023137 0.999119
vn 0.035017 -0.023137 0.999119
vn 0.035017 0.023137 0.999119
vn -0.035017 0.023137 0.999119
vn 0.000000 0.986849 0.161643
vn 0.000000 0.986849 0.161643
vn 0.000000 1.000000 0.000000
vn 0.000000 1.000000 0.000000
vn 0.000000 -1.000000 0.000000
vn 0.000000 -1.000000 0.000000
vn 0.000000 -0.986849 0.161643
vn 0.000000 -0.986849 0.161643
vn 0.986403 0.000000 0.164347
vn 1.000000 0.000000 0.000000
vn 1.000000 0.000000 0.000000
vn 0.986403 0.000000 0.164347
vn -1.000000 0.000000 0.000000
vn -0.986403 0.000000 0.164347
vn -0.986403 0.000000 0.164347
vn -1.000000 0.000000 0.000000
vn 0.000000 -0.382683 0.923880
vn 0.000000 -0.382683 0.923880
vn 0.000000 -0.923879 0.382684
vn 0.000000 -0.923879 0.382684
vn 0.382683 0.000000 0.923880
vn 0.382683 0.000000 0.923880
vn 0.923880 0.000000 0.382683
vn 0.923880 0.000000 0.382683
vn -0.923880 0.000000 0.382683
vn -0.923880 0.000000 0.382683
vn -0.382683 0.000000 0.923880
vn -0.382683 0.000000 0.923880
vn 0.000000 0.923879 0.382684
vn 0.000000 0.923879 0.382684
vn 0.000000 0.382683 0.923880
vn 0.000000 0.382683 0.923880
s off
g pCube1
usemtl initialShadingGroup
f 1/6/1 2/1/2 4/7/3 3/2/4
s 1
f 5/18/5 8/3/6 14/4/7 11/20/8
s 2
f 13/19/9 16/5/10 2/1/11 1/6/12
s 3
f 3/2/13 4/7/14 10/15/15 7/8/16
s 4
f 10/9/17 4/10/18 2/11/19 16/16/20
s 5
f 3/12/21 7/17/22 13/13/23 1/14/24
s 1
f 5/18/5 6/21/25 9/23/26 8/3/6
s 3
f 6/22/27 7/8/16 10/15/15 9/24/28
s 1
f 8/3/6 9/23/29 15/26/30 14/4/7
s 4
f 9/23/31 10/9/17 16/16/20 15/26/32
s 5
f 7/17/22 6/21/33 12/25/34 13/13/23
s 1
f 6/21/35 5/18/5 11/20/8 12/25/36
s 2
f 13/19/9 12/25/37 15/26/38 16/5/10
s 1
f 12/25/39 11/20/8 14/4/7 15/26/40
g default
v -0.138331 -0.019256 0.004351
v 0.138331 -0.019256 0.004351
v -0.135489 -0.098822 0.027120
v 0.135489 -0.098822 0.027120
v -0.135489 0.060311 -0.018417
v 0.135489 0.060311 -0.018417
v 0.063481 0.145137 -0.042691
v 0.063481 -0.183648 0.051394
v 0.055474 -0.031505 0.156734
v 0.056637 0.017632 0.133256
v 0.055474 0.071751 0.127186
v -0.000000 0.148644 -0.043695
v -0.000000 -0.187155 0.052398
v -0.000000 -0.032607 0.157049
v -0.000000 0.017632 0.133256
v -0.000000 0.072852 0.126871
v -0.063481 0.145137 -0.042691
v -0.063481 -0.183648 0.051394
v -0.055474 -0.031505 0.156734
v -0.056637 0.017632 0.133256
v -0.055474 0.071751 0.127186
v -0.123219 0.070196 0.053193
v -0.125803 -0.000812 0.068804
v -0.123219 -0.069329 0.093119
v -0.057731 -0.140568 0.125356
v -0.000000 -0.143643 0.126236
v 0.057731 -0.140568 0.125356
v 0.123219 -0.069329 0.093119
v 0.125803 -0.000812 0.068804
v 0.123219 0.070196 0.053193
v 0.057731 0.147705 0.042864
v -0.000000 0.150779 0.041984
v -0.057731 0.147705 0.042864
v -0.102598 -0.078618 0.182699
v -0.094503 -0.081480 0.184735
v -0.093533 -0.073752 0.188208
v -0.093771 -0.065402 0.185312
v -0.102340 -0.067274 0.183160
v -0.106608 -0.072529 0.177746
v -0.051410 -0.068083 0.186303
v -0.051899 -0.076565 0.188986
v -0.052268 -0.084609 0.185172
v -0.102468 0.116039 0.130555
v -0.094013 0.115888 0.133549
v -0.093336 0.124422 0.131335
v -0.093909 0.129137 0.123837
v -0.102482 0.125477 0.123705
v -0.106707 0.117355 0.122867
v -0.052268 0.131859 0.123228
v -0.051899 0.127050 0.130719
v -0.051410 0.118433 0.132929
v -0.112729 -0.035585 0.147095
v -0.108333 -0.031575 0.153683
v -0.099965 -0.030181 0.156355
v 0.102598 -0.078618 0.182699
v 0.106608 -0.072529 0.177746
v 0.102412 -0.067388 0.183248
v 0.094013 -0.065595 0.185482
v 0.093673 -0.073820 0.188255
v 0.094503 -0.081480 0.184735
v 0.099965 -0.030181 0.156355
v 0.108333 -0.031575 0.153683
v 0.112729 -0.035585 0.147095
v -0.116895 0.132400 0.043597
v -0.112870 0.140325 0.043950
v -0.104812 0.143944 0.043940
v 0.093194 0.124338 0.131327
v 0.093771 0.115634 0.133507
v 0.102394 0.115891 0.130537
v 0.106707 0.117355 0.122867
v 0.102482 0.125477 0.123705
v 0.093909 0.129137 0.123837
v 0.116880 0.132508 0.043603
v 0.112866 0.140355 0.043952
v 0.104812 0.143944 0.043940
v -0.116312 -0.179271 0.050142
v -0.124269 -0.175696 0.049119
v -0.128078 -0.167972 0.046908
v -0.116880 -0.127281 0.117945
v -0.112866 -0.133756 0.122392
v -0.104812 -0.136807 0.124280
v 0.128078 -0.167972 0.046908
v 0.124269 -0.175696 0.049119
v 0.116312 -0.179271 0.050142
v 0.104812 -0.136807 0.124280
v 0.112866 -0.133756 0.122392
v 0.116880 -0.127281 0.117945
v -0.115290 0.014664 0.122885
v -0.110789 0.016793 0.130325
v -0.102463 0.017632 0.133256
v -0.112765 0.070113 0.116632
v -0.108343 0.070196 0.124499
v -0.099965 0.070426 0.127566
v 0.102463 0.017632 0.133256
v 0.110789 0.016793 0.130325
v 0.115290 0.014664 0.122885
v 0.099965 0.070426 0.127566
v 0.108343 0.070196 0.124499
v 0.112765 0.070113 0.116632
v 0.051410 0.118433 0.132929
v 0.051899 0.127050 0.130719
v 0.052268 0.131859 0.123228
v 0.051410 -0.068083 0.186303
v 0.051899 -0.076565 0.188986
v 0.052268 -0.084609 0.185172
v -0.000000 0.120671 0.132399
v -0.000000 0.129288 0.130150
v -0.000000 0.134125 0.122676
v -0.000000 -0.070263 0.187036
v -0.000000 -0.078765 0.189686
v -0.000000 -0.086823 0.185902
v -0.128078 0.129461 -0.038205
v -0.124269 0.137185 -0.040416
v -0.116312 0.140760 -0.041439
v 0.116312 0.140760 -0.041439
v 0.124269 0.137185 -0.040416
v 0.128078 0.129461 -0.038205
v -0.100419 -0.073282 0.186292
v -0.100376 0.122893 0.129904
v 0.100480 -0.073337 0.186327
v 0.100314 0.122824 0.129900
vt 0.125000 0.125000
vt 0.875000 0.125000
vt 0.875000 0.062500
vt 0.125000 0.187500
vt 0.562500 0.500000
vt 0.500000 0.500000
vt 0.500000 0.750000
vt 0.500000 0.125000
vt 0.437500 0.750000
vt 0.387166 0.985579
vt 0.388089 0.012330
vt 0.387779 0.237962
vt 0.387930 0.265326
vt 0.643039 0.009621
vt 0.875000 0.241818
vt 0.125000 0.008182
vt 0.614515 0.750000
vt 0.438909 0.012133
vt 0.437500 0.062500
vt 0.437946 0.265153
vt 0.437500 0.375000
vt 0.386531 0.875000
vt 0.437500 0.875000
vt 0.753242 0.008856
vt 0.750000 0.062500
vt 0.356961 0.009621
vt 0.356853 0.062500
vt 0.250000 0.062500
vt 0.250000 0.125000
vt 0.356490 0.187500
vt 0.645113 0.125000
vt 0.386931 0.125000
vt 0.354887 0.125000
vt 0.643147 0.062500
vt 0.750000 0.125000
vt 0.387374 0.062500
vt 0.437500 0.125000
vt 0.356283 0.240018
vt 0.246725 0.241054
vt 0.643510 0.187500
vt 0.750000 0.187500
vt 0.387374 0.187500
vt 0.437500 0.187500
vt 0.612070 0.265326
vt 0.613469 0.375000
vt 0.562500 0.375000
vt 0.562054 0.984847
vt 0.562500 0.875000
vt 0.612834 0.985579
vt 0.612626 0.062500
vt 0.562500 0.062500
vt 0.613069 0.125000
vt 0.562500 0.125000
vt 0.612626 0.187500
vt 0.561091 0.237867
vt 0.562054 0.265153
vt 0.500000 0.375000
vt 0.500000 0.984985
vt 0.500000 0.062500
vt 0.561091 0.012133
vt 0.500000 0.238156
vt 0.562500 0.187500
vt 0.500000 0.265015
vt 0.437946 0.984847
vt 0.500000 0.875000
vt 0.500000 0.011844
vt 0.438909 0.237867
vt 0.500000 0.187500
vt 0.250000 0.187500
vt 0.125000 0.241818
vt 0.246758 0.008856
vt 0.125000 0.062500
vt 0.385485 0.750000
vt 0.613469 0.875000
vt 0.562500 0.750000
vt 0.875000 0.008182
vt 0.753242 0.241144
vt 0.875000 0.187500
vt 0.614515 0.500000
vt 0.386531 0.375000
vt 0.437500 0.500000
vt 0.385485 0.500000
vt 0.643717 0.240018
vt 0.611911 0.237670
vt 0.612221 0.012038
vt 0.375000 0.990476
vt 0.365476 -0.000000
vt 0.384155 -0.000000
vt 0.384155 1.000000
vt 0.372821 0.011043
vt 0.437500 1.000000
vt 0.437500 0.000000
vt 0.372552 0.238879
vt 0.388018 0.251226
vt 0.365094 0.250000
vt 0.375000 0.259906
vt 0.437500 0.250000
vt 0.375000 0.062500
vt 0.634467 -0.000000
vt 0.625000 0.990533
vt 0.627311 0.010886
vt 0.615949 1.000000
vt 0.615949 -0.000000
vt 0.625000 0.062500
vt 0.375000 0.375000
vt 0.250000 0.250000
vt 0.611820 0.251190
vt 0.627309 0.238715
vt 0.625000 0.259958
vt 0.634958 0.250000
vt 0.625000 0.375000
vt 0.750000 0.250000
vt 0.125000 0.000000
vt 0.375000 0.875000
vt 0.250000 0.000000
vt 0.625000 0.750000
vt 0.750000 0.000000
vt 0.625000 0.875000
vt 0.375000 0.125000
vt 0.375000 0.187500
vt 0.625000 0.125000
vt 0.625000 0.187500
vt 0.562500 0.250000
vt 0.562500 0.000000
vt 0.562500 1.000000
vt 0.500000 0.250000
vt 0.500000 1.000000
vt 0.500000 0.000000
vt 0.375000 0.500000
vt 0.875000 0.250000
vt 0.375000 1.000000
vt 0.375000 0.000000
vt 0.375000 0.250000
vt 0.625000 0.000000
vt 0.625000 1.000000
vt 0.625000 0.250000
vn -0.000000 0.275118 0.961411
vn 0.000000 0.523091 0.852277
vn -0.007582 0.524195 0.851565
vn -0.002108 0.275117 0.961408
vn 0.000000 0.006951 0.999976
vn -0.007557 0.005823 0.999955
vn 0.002108 0.275117 0.961408
vn 0.007557 0.524036 0.851662
vn 0.007582 0.005637 0.999955
vn -0.983994 0.049026 0.171324
vn -0.983939 0.049105 0.171616
vn -0.982807 0.100417 0.154940
vn -0.982813 0.107048 0.150399
vn -0.982813 -0.011294 0.184258
vn -0.982810 -0.003269 0.184591
vn 0.000000 -0.804692 0.593693
vn -0.061748 -0.803496 0.592099
vn -0.067304 -0.859878 0.506043
vn 0.000000 -0.861894 0.507089
vn 0.061748 -0.803496 0.592099
vn 0.067304 -0.859878 0.506043
vn 0.983939 0.049105 0.171616
vn 0.982810 -0.003270 0.184591
vn 0.982813 -0.011294 0.184258
vn 0.983994 0.049026 0.171324
vn 0.982807 0.100430 0.154932
vn 0.982813 0.107057 0.150390
vn 0.000000 0.996943 0.078136
vn 0.061755 0.995106 0.077145
vn 0.067304 0.997408 -0.025439
vn -0.000000 0.999672 -0.025618
vn -0.061755 0.995106 0.077145
vn -0.067304 0.997408 -0.025439
vn -0.033455 0.591113 0.805895
vn -0.032508 0.318828 0.947255
vn -0.000032 0.306299 0.951935
vn 0.011692 0.583963 0.811696
vn -0.076609 -0.414766 0.906697
vn -0.115885 -0.698945 0.705724
vn -0.053490 -0.703140 0.709037
vn -0.035841 -0.421593 0.906077
vn -0.968487 -0.032232 0.246971
vn -0.861344 0.200319 0.466860
vn -0.864669 0.203730 0.459174
vn -0.977301 0.023446 0.210556
vn -0.319872 0.544167 0.775606
vn -0.052100 0.517574 0.854051
vn -0.334816 0.470873 0.816197
vn -0.116628 0.966439 0.228898
vn -0.084241 0.841206 0.534112
vn -0.037476 0.840733 0.540151
vn -0.053539 0.971771 0.229771
vn -0.034680 0.247892 0.968167
vn -0.035159 -0.073698 0.996661
vn 0.011618 -0.065543 0.997782
vn -0.000808 0.250154 0.968206
vn -0.968293 0.158894 0.192772
vn -0.876051 0.430842 0.216586
vn -0.882124 0.446221 0.150813
vn -0.973270 0.177168 0.146142
vn -0.388497 0.890041 0.238533
vn -0.127173 0.988817 0.077902
vn -0.403045 0.908015 0.114298
vn 0.033535 0.590997 0.805976
vn 0.324328 0.543975 0.773888
vn 0.336457 0.470652 0.815649
vn 0.051977 0.518011 0.853793
vn 0.863885 0.197212 0.463477
vn 0.968555 -0.032314 0.246694
vn 0.977335 0.023356 0.210405
vn 0.865718 0.202751 0.457629
vn 0.035105 -0.073792 0.996656
vn 0.036173 0.243105 0.969325
vn 0.001397 0.248346 0.968671
vn -0.011478 -0.065399 0.997793
vn 0.084142 0.838136 0.538932
vn 0.116517 0.966381 0.229196
vn 0.053574 0.971725 0.229958
vn 0.037824 0.839598 0.541890
vn 0.126930 0.988850 0.077875
vn 0.401721 0.908621 0.114144
vn 0.407186 0.913109 0.020763
vn 0.134920 0.990692 -0.018040
vn 0.881471 0.447501 0.150838
vn 0.973259 0.177226 0.146141
vn 0.973644 0.184274 0.134391
vn 0.883807 0.456342 0.103133
vn -0.973644 -0.085286 0.211528
vn -0.883807 -0.332704 0.328927
vn -0.882538 -0.299525 0.362507
vn -0.973456 -0.072493 0.217089
vn -0.407185 -0.763900 0.500657
vn -0.134920 -0.850265 0.508770
vn -0.126266 -0.797890 0.589430
vn -0.403443 -0.711325 0.575544
vn 0.134920 -0.850265 0.508770
vn 0.407186 -0.763900 0.500657
vn 0.403443 -0.711325 0.575544
vn 0.126266 -0.797890 0.589430
vn 0.883807 -0.332704 0.328927
vn 0.973644 -0.085286 0.211528
vn 0.973456 -0.072493 0.217089
vn 0.882538 -0.299525 0.362507
vn -0.977817 0.057635 0.201377
vn -0.977324 0.091488 0.190963
vn 0.977817 0.057635 0.201377
vn 0.977291 0.091507 0.191124
vn -0.059389 0.274679 0.959700
vn -0.053151 0.012287 0.998511
vn 0.968230 0.158912 0.193075
vn 0.053461 -0.703272 0.708908
vn 0.115773 -0.699152 0.705537
vn -0.011819 0.584067 0.811620
vn 0.059389 0.274679 0.959700
vn 0.053289 0.012806 0.998497
vn 0.000000 0.972820 0.231562
vn -0.000000 -0.703059 0.711132
vn -0.000000 0.579039 0.815300
vn 0.000000 -0.060089 0.998193
vn -0.973624 0.184354 0.134425
vn -0.135185 0.990657 -0.017978
vn -0.000000 0.299570 0.954074
vn -0.000000 -0.426147 0.904654
vn -0.866097 0.138020 0.480444
vn -0.344377 0.258526 0.902535
vn 0.344377 0.258526 0.902534
vn 0.866097 0.138020 0.480444
vn -0.884446 0.455006 0.103556
vn -0.408522 0.912504 0.021120
vn 0.387097 0.890366 0.239591
vn 0.875288 0.431661 0.218035
vn -0.391040 -0.628970 0.671926
vn -0.877647 -0.248644 0.409770
vn 0.877738 -0.249394 0.409120
vn 0.391197 -0.629586 0.671258
vn -0.868678 0.071552 0.490183
vn -0.341727 0.033116 0.939215
vn -0.333312 -0.047510 0.941619
vn -0.868395 0.084881 0.488554
vn 0.340137 0.033268 0.939787
vn 0.867623 0.071561 0.492047
vn 0.865828 0.083988 0.493242
vn 0.328965 -0.046616 0.943191
vn 0.000000 0.250486 0.968120
vn 0.000000 0.840201 0.542275
vn 0.076744 -0.419651 0.904435
vn 0.035546 -0.423391 0.905249
vn 0.031165 0.313928 0.948935
vn -0.000492 0.304424 0.952537
vn -0.810125 -0.005360 0.586232
vn -0.315130 -0.391666 0.864460
vn -0.268172 0.338448 0.901963
vn -0.816289 0.338477 0.468087
vn -0.286004 0.224845 0.931475
vn -0.318439 0.809313 0.493568
vn 0.318516 -0.401734 0.858579
vn 0.814346 -0.014892 0.580188
vn 0.275577 0.328852 0.903279
vn 0.315149 0.804001 0.504245
vn 0.278597 0.215960 0.935812
vn 0.812081 0.333741 0.478687
s 1
g pCube2
usemtl initialShadingGroup
f 31/34/41 30/85/42 25/77/43 26/79/44
f 32/94/45 31/34/41 26/79/44 27/88/46
f 36/63/47 35/45/48 30/85/42 31/34/41
f 37/69/49 36/63/47 31/34/41 32/94/45
s 2
f 17/27/50 39/55/51 38/95/52 21/30/53
f 19/98/54 40/54/55 39/55/51 17/27/50
s 3
f 42/91/56 41/49/57 34/35/58 29/33/59
f 43/74/60 42/91/56 29/33/59 24/101/61
s 4
f 45/61/62 44/51/63 20/29/64 18/28/65
f 46/67/66 45/61/62 18/28/65 22/104/67
s 5
f 48/83/68 47/72/69 23/31/70 28/32/71
f 49/47/72 48/83/68 28/32/71 33/107/73
s 1
f 53/37/74 52/114/75 57/118/76 56/44/77
s 3
f 52/115/78 51/36/79 58/90/80 57/117/81
s 2
f 55/52/82 54/116/83 69/124/84 68/53/85
s 1
f 54/116/86 53/37/74 70/62/87 69/124/88
s 5
f 62/39/89 61/120/90 66/123/91 65/46/92
s 1
f 61/120/93 60/38/94 67/93/95 66/123/96
s 2
f 64/64/97 63/121/98 81/132/99 80/65/100
s 5
f 63/122/101 62/39/89 82/106/102 81/131/103
s 1
f 74/111/104 73/127/105 78/130/106 77/76/107
s 4
f 73/127/108 72/40/109 79/60/110 78/130/111
s 1
f 84/110/112 83/133/113 117/149/114 116/81/115
s 5
f 83/133/116 88/70/117 118/82/118 117/149/119
f 91/71/120 90/137/121 132/156/122 131/105/123
s 4
f 90/138/124 89/103/125 133/41/126 132/156/127
s 2
f 94/42/128 93/139/129 96/141/130 95/97/131
s 3
f 93/139/132 92/99/133 97/48/134 96/140/135
f 100/43/136 99/142/137 102/144/138 101/100/139
s 4
f 99/142/140 98/102/141 103/50/142 102/143/143
s 1
f 53/37/74 56/44/77 35/45/48 70/62/87
s 5
f 62/39/89 65/46/92 49/47/72 82/106/102
s 3
f 97/48/134 41/49/57 58/90/80 51/36/79
s 4
f 72/40/109 103/50/142 44/51/63 79/60/110
s 2
f 95/97/131 55/52/82 68/53/85 40/54/55
f 39/55/51 104/59/144 107/56/145 38/95/52
s 4
f 112/57/146 45/61/62 46/67/66 115/66/147
s 1
f 106/58/148 36/63/47 37/69/49 109/68/149
s 2
f 40/54/55 68/53/85 104/59/144 39/55/51
s 4
f 79/60/110 44/51/63 45/61/62 112/57/146
s 1
f 70/62/87 35/45/48 36/63/47 106/58/148
s 2
f 38/95/52 107/56/145 64/64/97 80/65/100
s 4
f 115/66/147 46/67/66 89/103/125 86/109/150
s 1
f 109/68/149 37/69/49 67/93/95 60/38/94
s 5
f 118/82/118 88/70/117 91/71/120 47/72/69
s 3
f 121/73/151 43/74/60 101/100/139 76/75/152
s 1
f 25/77/43 119/86/153 74/111/104 77/76/107
f 26/79/44 25/77/43 77/76/107 110/78/154
f 27/88/46 26/79/44 110/78/154 113/80/155
f 116/81/115 27/88/46 113/80/155 84/110/112
s 5
f 124/89/156 118/82/118 47/72/69 48/83/68
s 3
f 127/84/157 42/91/56 43/74/60 121/73/151
s 1
f 30/85/42 125/92/158 119/86/153 25/77/43
f 122/87/159 32/94/45 27/88/46 116/81/115
s 5
f 65/46/92 124/89/156 48/83/68 49/47/72
s 3
f 58/90/80 41/49/57 42/91/56 127/84/157
s 1
f 35/45/48 56/44/77 125/92/158 30/85/42
f 67/93/95 37/69/49 32/94/45 122/87/159
s 2
f 21/30/53 38/95/52 80/65/100 128/96/160
f 94/42/128 95/97/131 40/54/55 19/98/54
s 3
f 97/48/134 92/99/133 34/35/58 41/49/57
f 101/100/139 43/74/60 24/101/61 100/43/136
s 4
f 44/51/63 103/50/142 98/102/141 20/29/64
f 89/103/125 46/67/66 22/104/67 133/41/126
s 5
f 47/72/69 91/71/120 131/105/123 23/31/70
f 82/106/102 49/47/72 33/107/73 130/108/161
s 1
f 56/44/77 57/118/76 126/154/162 125/92/158
s 3
f 57/117/81 58/90/80 127/84/157 126/153/163
s 2
f 68/53/85 69/124/84 105/145/164 104/59/144
s 1
f 69/124/88 70/62/87 106/58/148 105/145/165
f 77/76/107 78/130/106 111/147/166 110/78/154
s 4
f 78/130/111 79/60/110 112/57/146 111/147/167
s 2
f 80/65/100 81/132/99 129/155/168 128/96/160
s 5
f 81/131/103 82/106/102 130/108/161 129/155/169
f 88/70/117 87/135/170 90/137/121 91/71/120
s 4
f 87/136/171 86/109/150 89/103/125 90/138/124
s 3
f 51/36/79 50/112/172 96/140/135 97/48/134
s 2
f 50/113/173 55/52/82 95/97/131 96/141/130
s 4
f 72/40/109 71/125/174 102/143/143 103/50/142
s 3
f 71/126/175 76/75/152 101/100/139 102/144/138
s 2
f 104/59/144 105/145/164 108/146/176 107/56/145
s 1
f 105/145/165 106/58/148 109/68/149 108/146/177
f 60/38/94 59/119/178 108/146/177 109/68/149
s 2
f 59/119/179 64/64/97 107/56/145 108/146/176
s 1
f 110/78/154 111/147/166 114/148/180 113/80/155
s 4
f 111/147/167 112/57/146 115/66/147 114/148/181
f 86/109/150 85/134/182 114/148/181 115/66/147
s 1
f 85/134/183 84/110/112 113/80/155 114/148/180
f 116/81/115 117/149/114 123/152/184 122/87/159
s 5
f 117/149/119 118/82/118 124/89/156 123/152/185
s 3
f 76/75/152 75/128/186 120/151/187 121/73/151
s 1
f 75/129/188 74/111/104 119/86/153 120/150/189
s 5
f 65/46/92 66/123/91 123/152/185 124/89/156
s 1
f 66/123/96 67/93/95 122/87/159 123/152/184
s 3
f 121/73/151 120/151/187 126/153/163 127/84/157
s 1
f 120/150/189 119/86/153 125/92/158 126/154/162
s 2
f 54/116/83 55/52/82 50/113/173 134/158/190
s 3
f 50/112/172 51/36/79 52/115/78 134/157/191
s 1
f 52/114/75 53/37/74 54/116/86 134/158/192
s 2
f 63/121/98 64/64/97 59/119/179 135/159/193
s 1
f 59/119/178 60/38/94 61/120/93 135/159/194
s 5
f 61/120/90 62/39/89 63/122/101 135/159/195
s 3
f 75/128/186 76/75/152 71/126/175 136/161/196
s 4
f 71/125/174 72/40/109 73/127/108 136/160/197
s 1
f 73/127/105 74/111/104 75/129/188 136/160/198
s 5
f 87/135/170 88/70/117 83/133/116 137/162/199
s 1
f 83/133/113 84/110/112 85/134/183 137/162/200
s 4
f 85/134/182 86/109/150 87/136/171 137/162/201
